<?xml version="1.0" standalone="no"?>
<!DOCTYPE svg PUBLIC "-//W3C//DTD SVG 1.1//EN"
"http://www.w3.org/Graphics/SVG/1.1/DTD/svg11.dtd">

<svg width="561" height="413" view_box="0 0 561 413"
xmlns="http://www.w3.org/2000/svg"
xmlns:link="http://www.w3.org/1999/xlink">\n\n<desc>Généré par Mocodo 2.3.7 le Thu, 22 Oct 2020 05:41:07</desc>

<rect id="frame" x="0" y="0" width="561" height="413" fill="#ffffbf" stroke="none" stroke-width="0"/>

<!-- Association CONTIENT -->
<line x1="271" y1="262" x2="396" y2="262" stroke="#f46d43" stroke-width="2"/>
<text x="314" y="279.0" fill="#3288bd" font-family="Verdana" font-size="12">0,N</text>
<line x1="396" y1="379" x2="396" y2="262" stroke="#f46d43" stroke-width="2"/>
<text x="401.0" y="346" fill="#3288bd" font-family="Verdana" font-size="12">1,1</text>
<g id="association-CONTIENT">
	<path d="M 421 237 a 14 14 90 0 1 14 14 V 262 h -78 V 251 a 14 14 90 0 1 14 -14" fill="#fdae61" stroke="#fdae61" stroke-width="0"/>
	<path d="M 435 262.0 v 11 a 14 14 90 0 1 -14 14 H 371 a 14 14 90 0 1 -14 -14 V 262.0 H 78" fill="#fee08b" stroke="#fee08b" stroke-width="0"/>
	<rect x="357" y="237" width="78" height="50" fill="none" rx="14" stroke="#f46d43" stroke-width="2"/>
	<line x1="357" y1="262" x2="435" y2="262" stroke="#f46d43" stroke-width="1"/>
	<text x="364" y="254.7" fill="#000000" font-family="Verdana" font-size="12">CONTIENT</text>
</g>

<!-- Association VALIDE -->
<line x1="271" y1="262" x2="159" y2="379" stroke="#f46d43" stroke-width="2"/>
<text x="207" y="300.549142079" fill="#3288bd" font-family="Verdana" font-size="12">1,1</text>
<line x1="396" y1="379" x2="159" y2="379" stroke="#f46d43" stroke-width="2"/>
<text x="336" y="396.0" fill="#3288bd" font-family="Verdana" font-size="12">0,1</text>
<g id="association-VALIDE">
	<path d="M 175 354 a 14 14 90 0 1 14 14 V 379 h -60 V 368 a 14 14 90 0 1 14 -14" fill="#fdae61" stroke="#fdae61" stroke-width="0"/>
	<path d="M 189 379.0 v 11 a 14 14 90 0 1 -14 14 H 143 a 14 14 90 0 1 -14 -14 V 379.0 H 60" fill="#fee08b" stroke="#fee08b" stroke-width="0"/>
	<rect x="129" y="354" width="60" height="50" fill="none" rx="14" stroke="#f46d43" stroke-width="2"/>
	<line x1="129" y1="379" x2="189" y2="379" stroke="#f46d43" stroke-width="1"/>
	<text x="136" y="371.7" fill="#000000" font-family="Verdana" font-size="12">VALIDE</text>
</g>

<!-- Association APPARTIENT -->
<line x1="271" y1="77" x2="396" y2="77" stroke="#f46d43" stroke-width="2"/>
<text x="323" y="94.0" fill="#3288bd" font-family="Verdana" font-size="12">0,N</text>
<line x1="513" y1="77" x2="396" y2="77" stroke="#f46d43" stroke-width="2"/>
<text x="447" y="94.0" fill="#3288bd" font-family="Verdana" font-size="12">0,N</text>
<g id="association-APPARTIENT">
	<path d="M 428 52 a 14 14 90 0 1 14 14 V 77 h -92 V 66 a 14 14 90 0 1 14 -14" fill="#fdae61" stroke="#fdae61" stroke-width="0"/>
	<path d="M 442 77.0 v 11 a 14 14 90 0 1 -14 14 H 364 a 14 14 90 0 1 -14 -14 V 77.0 H 92" fill="#fee08b" stroke="#fee08b" stroke-width="0"/>
	<rect x="350" y="52" width="92" height="50" fill="none" rx="14" stroke="#f46d43" stroke-width="2"/>
	<line x1="350" y1="77" x2="442" y2="77" stroke="#f46d43" stroke-width="1"/>
	<text x="357" y="69.7" fill="#000000" font-family="Verdana" font-size="12">APPARTIENT</text>
</g>

<!-- Association CONCERNE -->
<line x1="56" y1="262" x2="159" y2="262" stroke="#f46d43" stroke-width="2"/>
<text x="90" y="279.0" fill="#3288bd" font-family="Verdana" font-size="12">0,N</text>
<line x1="271" y1="262" x2="159" y2="262" stroke="#f46d43" stroke-width="2"/>
<text x="207" y="254.0" fill="#3288bd" font-family="Verdana" font-size="12">1,1</text>
<g id="association-CONCERNE">
	<path d="M 187 237 a 14 14 90 0 1 14 14 V 262 h -84 V 251 a 14 14 90 0 1 14 -14" fill="#fdae61" stroke="#fdae61" stroke-width="0"/>
	<path d="M 201 262.0 v 11 a 14 14 90 0 1 -14 14 H 131 a 14 14 90 0 1 -14 -14 V 262.0 H 84" fill="#fee08b" stroke="#fee08b" stroke-width="0"/>
	<rect x="117" y="237" width="84" height="50" fill="none" rx="14" stroke="#f46d43" stroke-width="2"/>
	<line x1="117" y1="262" x2="201" y2="262" stroke="#f46d43" stroke-width="1"/>
	<text x="124" y="254.7" fill="#000000" font-family="Verdana" font-size="12">CONCERNE</text>
</g>

<!-- Association POSSEDE -->
<line x1="271" y1="77" x2="271" y2="170" stroke="#f46d43" stroke-width="2"/>
<text x="276.0" y="136" fill="#3288bd" font-family="Verdana" font-size="12">0,N</text>
<line x1="271" y1="262" x2="271" y2="170" stroke="#f46d43" stroke-width="2"/>
<text x="276.0" y="212" fill="#3288bd" font-family="Verdana" font-size="12">1,1</text>
<g id="association-POSSEDE">
	<path d="M 294 145 a 14 14 90 0 1 14 14 V 170 h -74 V 159 a 14 14 90 0 1 14 -14" fill="#fdae61" stroke="#fdae61" stroke-width="0"/>
	<path d="M 308 170.0 v 11 a 14 14 90 0 1 -14 14 H 248 a 14 14 90 0 1 -14 -14 V 170.0 H 74" fill="#fee08b" stroke="#fee08b" stroke-width="0"/>
	<rect x="234" y="145" width="74" height="50" fill="none" rx="14" stroke="#f46d43" stroke-width="2"/>
	<line x1="234" y1="170" x2="308" y2="170" stroke="#f46d43" stroke-width="1"/>
	<text x="241" y="162.7" fill="#000000" font-family="Verdana" font-size="12">POSSEDE</text>
</g>

<!-- Association CREE -->
<line x1="56" y1="77" x2="159" y2="77" stroke="#f46d43" stroke-width="2"/>
<text x="108" y="94.0" fill="#3288bd" font-family="Verdana" font-size="12">0,N</text>
<line x1="271" y1="77" x2="159" y2="77" stroke="#f46d43" stroke-width="2"/>
<text x="198" y="94.0" fill="#3288bd" font-family="Verdana" font-size="12">1,1</text>
<g id="association-CREE">
	<path d="M 169 52 a 14 14 90 0 1 14 14 V 77 h -48 V 66 a 14 14 90 0 1 14 -14" fill="#fdae61" stroke="#fdae61" stroke-width="0"/>
	<path d="M 183 77.0 v 11 a 14 14 90 0 1 -14 14 H 149 a 14 14 90 0 1 -14 -14 V 77.0 H 48" fill="#fee08b" stroke="#fee08b" stroke-width="0"/>
	<rect x="135" y="52" width="48" height="50" fill="none" rx="14" stroke="#f46d43" stroke-width="2"/>
	<line x1="135" y1="77" x2="183" y2="77" stroke="#f46d43" stroke-width="1"/>
	<text x="142" y="69.7" fill="#000000" font-family="Verdana" font-size="12">CREE</text>
</g>

<!-- Entity UTILISATEUR -->
<g id="entity-UTILISATEUR">
	<g id="frame-UTILISATEUR">
		<rect x="9" y="9" width="94" height="25" fill="#abdda4" stroke="#abdda4" stroke-width="0"/>
		<rect x="9" y="34.0" width="94" height="111" fill="#e6f598" stroke="#e6f598" stroke-width="0"/>
		<rect x="9" y="9" width="94" height="136" fill="none" stroke="#66c2a5" stroke-width="2"/>
		<line x1="9" y1="34" x2="103" y2="34" stroke="#66c2a5" stroke-width="1"/>
	</g>
	<text x="14" y="26.7" fill="#000000" font-family="Verdana" font-size="12">UTILISATEUR</text>
	<text x="14" y="51.7" fill="#000000" font-family="Verdana" font-size="12">nom</text>
	<text x="14" y="68.7" fill="#000000" font-family="Verdana" font-size="12">prenom</text>
	<text x="14" y="85.8" fill="#000000" font-family="Verdana" font-size="12">age</text>
	<text x="14" y="102.8" fill="#000000" font-family="Verdana" font-size="12">email</text>
	<text x="14" y="119.8" fill="#000000" font-family="Verdana" font-size="12">password</text>
	<text x="14" y="136.8" fill="#000000" font-family="Verdana" font-size="12">role</text>
</g>

<!-- Entity NIVEAU -->
<g id="entity-NIVEAU">
	<g id="frame-NIVEAU">
		<rect x="27" y="237" width="58" height="25" fill="#abdda4" stroke="#abdda4" stroke-width="0"/>
		<rect x="27" y="262.0" width="58" height="25" fill="#e6f598" stroke="#e6f598" stroke-width="0"/>
		<rect x="27" y="237" width="58" height="50" fill="none" stroke="#66c2a5" stroke-width="2"/>
		<line x1="27" y1="262" x2="85" y2="262" stroke="#66c2a5" stroke-width="1"/>
	</g>
	<text x="32" y="254.7" fill="#000000" font-family="Verdana" font-size="12">NIVEAU</text>
	<text x="32" y="279.8" fill="#000000" font-family="Verdana" font-size="12">nom</text>
</g>

<!-- Entity QUESTION -->
<g id="entity-QUESTION">
	<g id="frame-QUESTION">
		<rect x="233" y="220" width="76" height="25" fill="#abdda4" stroke="#abdda4" stroke-width="0"/>
		<rect x="233" y="245.0" width="76" height="59" fill="#e6f598" stroke="#e6f598" stroke-width="0"/>
		<rect x="233" y="220" width="76" height="84" fill="none" stroke="#66c2a5" stroke-width="2"/>
		<line x1="233" y1="245" x2="309" y2="245" stroke="#66c2a5" stroke-width="1"/>
	</g>
	<text x="238" y="237.7" fill="#000000" font-family="Verdana" font-size="12">QUESTION</text>
	<text x="238" y="262.8" fill="#000000" font-family="Verdana" font-size="12">intitulé</text>
	<text x="238" y="279.8" fill="#000000" font-family="Verdana" font-size="12">anedote</text>
	<text x="238" y="296.8" fill="#000000" font-family="Verdana" font-size="12">infos</text>
</g>

<!-- Entity REPONSE -->
<g id="entity-REPONSE">
	<g id="frame-REPONSE">
		<rect x="362" y="354" width="68" height="25" fill="#abdda4" stroke="#abdda4" stroke-width="0"/>
		<rect x="362" y="379.0" width="68" height="25" fill="#e6f598" stroke="#e6f598" stroke-width="0"/>
		<rect x="362" y="354" width="68" height="50" fill="none" stroke="#66c2a5" stroke-width="2"/>
		<line x1="362" y1="379" x2="430" y2="379" stroke="#66c2a5" stroke-width="1"/>
	</g>
	<text x="367" y="371.7" fill="#000000" font-family="Verdana" font-size="12">REPONSE</text>
	<text x="367" y="396.8" fill="#000000" font-family="Verdana" font-size="12">intitulé</text>
</g>

<!-- Entity QUIZ -->
<g id="entity-QUIZ">
	<g id="frame-QUIZ">
		<rect x="224" y="35" width="94" height="25" fill="#abdda4" stroke="#abdda4" stroke-width="0"/>
		<rect x="224" y="60.0" width="94" height="59" fill="#e6f598" stroke="#e6f598" stroke-width="0"/>
		<rect x="224" y="35" width="94" height="84" fill="none" stroke="#66c2a5" stroke-width="2"/>
		<line x1="224" y1="60" x2="318" y2="60" stroke="#66c2a5" stroke-width="1"/>
	</g>
	<text x="254" y="52.7" fill="#000000" font-family="Verdana" font-size="12">QUIZ</text>
	<text x="229" y="77.8" fill="#000000" font-family="Verdana" font-size="12">titre</text>
	<text x="229" y="94.8" fill="#000000" font-family="Verdana" font-size="12">description</text>
	<text x="229" y="111.8" fill="#000000" font-family="Verdana" font-size="12">date_creation</text>
</g>

<!-- Entity THEME -->
<g id="entity-THEME">
	<g id="frame-THEME">
		<rect x="474" y="43" width="78" height="25" fill="#abdda4" stroke="#abdda4" stroke-width="0"/>
		<rect x="474" y="68.0" width="78" height="43" fill="#e6f598" stroke="#e6f598" stroke-width="0"/>
		<rect x="474" y="43" width="78" height="68" fill="none" stroke="#66c2a5" stroke-width="2"/>
		<line x1="474" y1="68" x2="552" y2="68" stroke="#66c2a5" stroke-width="1"/>
	</g>
	<text x="491" y="60.7" fill="#000000" font-family="Verdana" font-size="12">THEME</text>
	<text x="479" y="85.8" fill="#000000" font-family="Verdana" font-size="12">nom</text>
	<text x="479" y="102.8" fill="#000000" font-family="Verdana" font-size="12">description</text>
</g>
</svg>