<?xml version="1.0" standalone="no"?>
<!DOCTYPE svg PUBLIC "-//W3C//DTD SVG 1.1//EN"
"http://www.w3.org/Graphics/SVG/1.1/DTD/svg11.dtd">

<svg width="529" height="387" view_box="0 0 529 387"
xmlns="http://www.w3.org/2000/svg"
xmlns:link="http://www.w3.org/1999/xlink">\n\n<desc>Généré par Mocodo 2.3.7 le Fri, 23 Oct 2020 06:32:58</desc>

<rect id="frame" x="0" y="0" width="529" height="387" fill="#ffffbf" stroke="none" stroke-width="0"/>

<!-- Association CONTIENT -->
<line x1="271" y1="236" x2="388" y2="236" stroke="#f46d43" stroke-width="2"/>
<text x="314" y="253.0" fill="#3288bd" font-family="Verdana" font-size="12">0,N</text>
<line x1="388" y1="353" x2="388" y2="236" stroke="#f46d43" stroke-width="2"/>
<text x="393.0" y="320" fill="#3288bd" font-family="Verdana" font-size="12">1,1</text>
<g id="association-CONTIENT">
	<path d="M 413 211 a 14 14 90 0 1 14 14 V 236 h -78 V 225 a 14 14 90 0 1 14 -14" fill="#fdae61" stroke="#fdae61" stroke-width="0"/>
	<path d="M 427 236.0 v 11 a 14 14 90 0 1 -14 14 H 363 a 14 14 90 0 1 -14 -14 V 236.0 H 78" fill="#fee08b" stroke="#fee08b" stroke-width="0"/>
	<rect x="349" y="211" width="78" height="50" fill="none" rx="14" stroke="#f46d43" stroke-width="2"/>
	<line x1="349" y1="236" x2="427" y2="236" stroke="#f46d43" stroke-width="1"/>
	<text x="356" y="228.7" fill="#000000" font-family="Verdana" font-size="12">CONTIENT</text>
</g>

<!-- Association VALIDE -->
<line x1="271" y1="236" x2="159" y2="353" stroke="#f46d43" stroke-width="2"/>
<text x="207" y="274.549142079" fill="#3288bd" font-family="Verdana" font-size="12">1,1</text>
<line x1="388" y1="353" x2="159" y2="353" stroke="#f46d43" stroke-width="2"/>
<text x="328" y="370.0" fill="#3288bd" font-family="Verdana" font-size="12">0,1</text>
<g id="association-VALIDE">
	<path d="M 175 328 a 14 14 90 0 1 14 14 V 353 h -60 V 342 a 14 14 90 0 1 14 -14" fill="#fdae61" stroke="#fdae61" stroke-width="0"/>
	<path d="M 189 353.0 v 11 a 14 14 90 0 1 -14 14 H 143 a 14 14 90 0 1 -14 -14 V 353.0 H 60" fill="#fee08b" stroke="#fee08b" stroke-width="0"/>
	<rect x="129" y="328" width="60" height="50" fill="none" rx="14" stroke="#f46d43" stroke-width="2"/>
	<line x1="129" y1="353" x2="189" y2="353" stroke="#f46d43" stroke-width="1"/>
	<text x="136" y="345.7" fill="#000000" font-family="Verdana" font-size="12">VALIDE</text>
</g>

<!-- Association APPARTIENT -->
<line x1="271" y1="60" x2="388" y2="60" stroke="#f46d43" stroke-width="2"/>
<text x="315" y="77.0" fill="#3288bd" font-family="Verdana" font-size="12">0,N</text>
<line x1="493" y1="60" x2="388" y2="60" stroke="#f46d43" stroke-width="2"/>
<text x="439" y="77.0" fill="#3288bd" font-family="Verdana" font-size="12">0,N</text>
<g id="association-APPARTIENT">
	<path d="M 420 35 a 14 14 90 0 1 14 14 V 60 h -92 V 49 a 14 14 90 0 1 14 -14" fill="#fdae61" stroke="#fdae61" stroke-width="0"/>
	<path d="M 434 60.0 v 11 a 14 14 90 0 1 -14 14 H 356 a 14 14 90 0 1 -14 -14 V 60.0 H 92" fill="#fee08b" stroke="#fee08b" stroke-width="0"/>
	<rect x="342" y="35" width="92" height="50" fill="none" rx="14" stroke="#f46d43" stroke-width="2"/>
	<line x1="342" y1="60" x2="434" y2="60" stroke="#f46d43" stroke-width="1"/>
	<text x="349" y="52.7" fill="#000000" font-family="Verdana" font-size="12">APPARTIENT</text>
</g>

<!-- Association CONCERNE -->
<line x1="56" y1="236" x2="159" y2="236" stroke="#f46d43" stroke-width="2"/>
<text x="90" y="253.0" fill="#3288bd" font-family="Verdana" font-size="12">0,N</text>
<line x1="271" y1="236" x2="159" y2="236" stroke="#f46d43" stroke-width="2"/>
<text x="207" y="228.0" fill="#3288bd" font-family="Verdana" font-size="12">1,1</text>
<g id="association-CONCERNE">
	<path d="M 187 211 a 14 14 90 0 1 14 14 V 236 h -84 V 225 a 14 14 90 0 1 14 -14" fill="#fdae61" stroke="#fdae61" stroke-width="0"/>
	<path d="M 201 236.0 v 11 a 14 14 90 0 1 -14 14 H 131 a 14 14 90 0 1 -14 -14 V 236.0 H 84" fill="#fee08b" stroke="#fee08b" stroke-width="0"/>
	<rect x="117" y="211" width="84" height="50" fill="none" rx="14" stroke="#f46d43" stroke-width="2"/>
	<line x1="117" y1="236" x2="201" y2="236" stroke="#f46d43" stroke-width="1"/>
	<text x="124" y="228.7" fill="#000000" font-family="Verdana" font-size="12">CONCERNE</text>
</g>

<!-- Association POSSEDE -->
<line x1="271" y1="60" x2="271" y2="144" stroke="#f46d43" stroke-width="2"/>
<text x="276.0" y="111" fill="#3288bd" font-family="Verdana" font-size="12">0,N</text>
<line x1="271" y1="236" x2="271" y2="144" stroke="#f46d43" stroke-width="2"/>
<text x="276.0" y="186" fill="#3288bd" font-family="Verdana" font-size="12">1,1</text>
<g id="association-POSSEDE">
	<path d="M 294 119 a 14 14 90 0 1 14 14 V 144 h -74 V 133 a 14 14 90 0 1 14 -14" fill="#fdae61" stroke="#fdae61" stroke-width="0"/>
	<path d="M 308 144.0 v 11 a 14 14 90 0 1 -14 14 H 248 a 14 14 90 0 1 -14 -14 V 144.0 H 74" fill="#fee08b" stroke="#fee08b" stroke-width="0"/>
	<rect x="234" y="119" width="74" height="50" fill="none" rx="14" stroke="#f46d43" stroke-width="2"/>
	<line x1="234" y1="144" x2="308" y2="144" stroke="#f46d43" stroke-width="1"/>
	<text x="241" y="136.7" fill="#000000" font-family="Verdana" font-size="12">POSSEDE</text>
</g>

<!-- Association CREE -->
<line x1="56" y1="60" x2="159" y2="60" stroke="#f46d43" stroke-width="2"/>
<text x="108" y="77.0" fill="#3288bd" font-family="Verdana" font-size="12">0,N</text>
<line x1="271" y1="60" x2="159" y2="60" stroke="#f46d43" stroke-width="2"/>
<text x="206" y="77.0" fill="#3288bd" font-family="Verdana" font-size="12">1,1</text>
<g id="association-CREE">
	<path d="M 169 35 a 14 14 90 0 1 14 14 V 60 h -48 V 49 a 14 14 90 0 1 14 -14" fill="#fdae61" stroke="#fdae61" stroke-width="0"/>
	<path d="M 183 60.0 v 11 a 14 14 90 0 1 -14 14 H 149 a 14 14 90 0 1 -14 -14 V 60.0 H 48" fill="#fee08b" stroke="#fee08b" stroke-width="0"/>
	<rect x="135" y="35" width="48" height="50" fill="none" rx="14" stroke="#f46d43" stroke-width="2"/>
	<line x1="135" y1="60" x2="183" y2="60" stroke="#f46d43" stroke-width="1"/>
	<text x="142" y="52.7" fill="#000000" font-family="Verdana" font-size="12">CREE</text>
</g>

<!-- Entity UTILISATEUR -->
<g id="entity-UTILISATEUR">
	<g id="frame-UTILISATEUR">
		<rect x="9" y="9" width="94" height="25" fill="#abdda4" stroke="#abdda4" stroke-width="0"/>
		<rect x="9" y="34.0" width="94" height="77" fill="#e6f598" stroke="#e6f598" stroke-width="0"/>
		<rect x="9" y="9" width="94" height="102" fill="none" stroke="#66c2a5" stroke-width="2"/>
		<line x1="9" y1="34" x2="103" y2="34" stroke="#66c2a5" stroke-width="1"/>
	</g>
	<text x="14" y="26.7" fill="#000000" font-family="Verdana" font-size="12">UTILISATEUR</text>
	<text x="14" y="51.7" fill="#000000" font-family="Verdana" font-size="12">email</text>
	<text x="14" y="68.8" fill="#000000" font-family="Verdana" font-size="12">password</text>
	<text x="14" y="85.8" fill="#000000" font-family="Verdana" font-size="12">nom</text>
	<text x="14" y="102.8" fill="#000000" font-family="Verdana" font-size="12">prenom</text>
</g>

<!-- Entity NIVEAU -->
<g id="entity-NIVEAU">
	<g id="frame-NIVEAU">
		<rect x="27" y="211" width="58" height="25" fill="#abdda4" stroke="#abdda4" stroke-width="0"/>
		<rect x="27" y="236.0" width="58" height="25" fill="#e6f598" stroke="#e6f598" stroke-width="0"/>
		<rect x="27" y="211" width="58" height="50" fill="none" stroke="#66c2a5" stroke-width="2"/>
		<line x1="27" y1="236" x2="85" y2="236" stroke="#66c2a5" stroke-width="1"/>
	</g>
	<text x="32" y="228.7" fill="#000000" font-family="Verdana" font-size="12">NIVEAU</text>
	<text x="32" y="253.8" fill="#000000" font-family="Verdana" font-size="12">nom</text>
</g>

<!-- Entity QUESTION -->
<g id="entity-QUESTION">
	<g id="frame-QUESTION">
		<rect x="233" y="194" width="76" height="25" fill="#abdda4" stroke="#abdda4" stroke-width="0"/>
		<rect x="233" y="219.0" width="76" height="59" fill="#e6f598" stroke="#e6f598" stroke-width="0"/>
		<rect x="233" y="194" width="76" height="84" fill="none" stroke="#66c2a5" stroke-width="2"/>
		<line x1="233" y1="219" x2="309" y2="219" stroke="#66c2a5" stroke-width="1"/>
	</g>
	<text x="238" y="211.7" fill="#000000" font-family="Verdana" font-size="12">QUESTION</text>
	<text x="238" y="236.8" fill="#000000" font-family="Verdana" font-size="12">intitulé</text>
	<text x="238" y="253.8" fill="#000000" font-family="Verdana" font-size="12">anedote</text>
	<text x="238" y="270.8" fill="#000000" font-family="Verdana" font-size="12">infos</text>
</g>

<!-- Entity REPONSE -->
<g id="entity-REPONSE">
	<g id="frame-REPONSE">
		<rect x="354" y="328" width="68" height="25" fill="#abdda4" stroke="#abdda4" stroke-width="0"/>
		<rect x="354" y="353.0" width="68" height="25" fill="#e6f598" stroke="#e6f598" stroke-width="0"/>
		<rect x="354" y="328" width="68" height="50" fill="none" stroke="#66c2a5" stroke-width="2"/>
		<line x1="354" y1="353" x2="422" y2="353" stroke="#66c2a5" stroke-width="1"/>
	</g>
	<text x="359" y="345.7" fill="#000000" font-family="Verdana" font-size="12">REPONSE</text>
	<text x="359" y="370.8" fill="#000000" font-family="Verdana" font-size="12">intitulé</text>
</g>

<!-- Entity QUIZ -->
<g id="entity-QUIZ">
	<g id="frame-QUIZ">
		<rect x="232" y="26" width="78" height="25" fill="#abdda4" stroke="#abdda4" stroke-width="0"/>
		<rect x="232" y="51.0" width="78" height="43" fill="#e6f598" stroke="#e6f598" stroke-width="0"/>
		<rect x="232" y="26" width="78" height="68" fill="none" stroke="#66c2a5" stroke-width="2"/>
		<line x1="232" y1="51" x2="310" y2="51" stroke="#66c2a5" stroke-width="1"/>
	</g>
	<text x="254" y="43.7" fill="#000000" font-family="Verdana" font-size="12">QUIZ</text>
	<text x="237" y="68.8" fill="#000000" font-family="Verdana" font-size="12">titre</text>
	<text x="237" y="85.8" fill="#000000" font-family="Verdana" font-size="12">description</text>
</g>

<!-- Entity THEME -->
<g id="entity-THEME">
	<g id="frame-THEME">
		<rect x="466" y="35" width="54" height="25" fill="#abdda4" stroke="#abdda4" stroke-width="0"/>
		<rect x="466" y="60.0" width="54" height="25" fill="#e6f598" stroke="#e6f598" stroke-width="0"/>
		<rect x="466" y="35" width="54" height="50" fill="none" stroke="#66c2a5" stroke-width="2"/>
		<line x1="466" y1="60" x2="520" y2="60" stroke="#66c2a5" stroke-width="1"/>
	</g>
	<text x="471" y="52.7" fill="#000000" font-family="Verdana" font-size="12">THEME</text>
	<text x="471" y="77.8" fill="#000000" font-family="Verdana" font-size="12">nom</text>
</g>
</svg>